<?xml version="1.0" encoding="utf-8"?>
<!-- Generator: Adobe Illustrator 26.0.0, SVG Export Plug-In . SVG Version: 6.00 Build 0)  -->
<svg version="1.1" id="Layer_1" xmlns="http://www.w3.org/2000/svg" xmlns:xlink="http://www.w3.org/1999/xlink" x="0px" y="0px"
	 viewBox="0 0 140 33" style="enable-background:new 0 0 140 33;" xml:space="preserve">
<style type="text/css">
	.st0{fill:#0D3749;}
	.st1{fill:#FFFFFF;}
	.st2{fill:#FCA311;}
	.st3{fill:none;}
	.st4{font-family:'LeelawadeeUI-Bold';}
	.st5{font-size:15.2738px;}
	.st6{font-family:'ML1-TTAmbili-Bold';}
	.st7{font-size:6.5178px;}
</style>
<g>
	<path class="st0" d="M20.01,31.26c-6.65,0-12.06-5.41-12.06-12.06v-5.39c0-6.65,5.41-12.06,12.06-12.06h5.39
		c6.65,0,12.06,5.41,12.06,12.06v5.39c0,6.65-5.41,12.06-12.06,12.06H20.01z"/>
	<path class="st0" d="M25.4,2.25c6.37,0,11.56,5.19,11.56,11.56v5.39c0,6.37-5.19,11.56-11.56,11.56h-5.39
		c-6.37,0-11.56-5.19-11.56-11.56v-5.39c0-6.37,5.19-11.56,11.56-11.56H25.4 M25.4,1.25h-5.39C13.1,1.25,7.45,6.9,7.45,13.81v5.39
		c0,6.91,5.65,12.56,12.56,12.56h5.39c6.91,0,12.56-5.65,12.56-12.56v-5.39C37.96,6.9,32.3,1.25,25.4,1.25L25.4,1.25z"/>
</g>
<path class="st1" d="M8.57,15.5c0,0,3.82-3.54,9.28-5.55c0,0-6.15,5.65,0,11.84c0,0-3.73-0.73-9.13-5.27c0,0,3.03,2.03,3.71,1.54
	c0,0-2.51-2.27-0.08-3.98C12.66,14.07,10.22,14.09,8.57,15.5z"/>
<path class="st1" d="M36.81,15.48c0,0-4.31-4.03-9.17-5.49c0,0,5.96,5.8,0,11.77c0,0,4.69-1.11,9.17-5.39c0,0-4,2.6-6.06,3.39
	c0,0,4.63-3.49,0-7.99C30.75,11.77,34.05,13.19,36.81,15.48z"/>
<path class="st1" d="M15.78,14.6c0,0,0.46-3.88,4.46-5.47c0,0,3.42-1.55,6.84,1.13c0,0,1.65,1.36,2.21,3.26c0,0-1.59-2.01-4.07-0.92
	c0,0-1.31-1.18-4.62-0.6c0,0-2.66,0.49-2.77,2.6h5.48c0,0-0.63,1.6,0.04,2.63h-5.37c0,0-0.04,1.9,2.75,2.5c0,0,2.53,0.78,4.46-0.53
	c0,0,2.04,1.05,3.84-0.64c0,0-1.65,4.22-6.5,4.21c0,0-4.22,0.08-6.19-4.08c0,0-0.8-1.24-0.57-4.04"/>
<g>
	<path class="st2" d="M25.12,15.14c-0.43,0-0.87-0.04-1.3-0.11c0.18-0.27,0.43-0.83,0.53-0.88c0.01,0,0.04-0.01,0.14-0.01l0.41,0.01
		c0.88,0,1.73-0.17,2.61-0.52c-0.41-0.18-1.42-0.43-1.7-0.55c0.13,0,0.49-0.1,0.94-0.1c0.62,0,1.53,0.19,2.3,1.08c0,0,0,0,0,0
		c-0.08,0-0.91,0.59-2.25,0.9C26.24,15.08,25.68,15.14,25.12,15.14z"/>
	<g>
		<path class="st1" d="M26.73,12.93v0.1c0.59,0,1.45,0.17,2.19,0.98c-0.25,0.17-1.02,0.64-2.16,0.9c-0.54,0.12-1.09,0.19-1.65,0.19
			c-0.39,0-0.78-0.03-1.17-0.09c0.16-0.37,0.35-0.76,0.41-0.81c0.01,0,0.03-0.01,0.12-0.01c0.04,0,0.09,0,0.14,0
			c0.07,0,0.16,0,0.26,0c0.88,0,1.74-0.17,2.63-0.52l0.3-0.12l-0.31-0.07c-0.44-0.1-1.09-0.26-1.46-0.37
			c0.17-0.04,0.42-0.08,0.7-0.08V12.93 M26.73,12.93c-0.6,0-1.02,0.16-1.02,0.16c0.2,0.12,1.77,0.48,1.77,0.48
			c-1.16,0.46-2.05,0.51-2.59,0.51c-0.17,0-0.31-0.01-0.41-0.01c-0.08,0-0.14,0-0.16,0.02c-0.15,0.09-0.51,0.98-0.51,0.98
			c0.46,0.08,0.9,0.11,1.31,0.11c0.62,0,1.18-0.08,1.67-0.19c1.44-0.33,2.29-0.98,2.29-0.98C28.31,13.14,27.41,12.93,26.73,12.93
			L26.73,12.93z"/>
	</g>
</g>
<g>
	<path class="st2" d="M25.33,16.65c-0.54,0-1.09-0.05-1.63-0.16c0.01-0.4,0.02-0.91,0.07-0.98c0.01,0.02,0.61,0.12,1.4,0.12
		c0,0,0,0,0,0c0.97,0,1.81-0.15,2.48-0.46l-0.81-0.22c0,0,0,0,0,0c0.29,0,1.48-0.3,2.27-0.9c-0.01,0.05,0.43,0.57,0.58,1.27
		c0,0,0,0,0,0C29.64,15.34,28,16.65,25.33,16.65z"/>
	<g>
		<path class="st1" d="M29.06,14.16c0.13,0.16,0.43,0.59,0.56,1.13c-0.29,0.22-1.86,1.31-4.3,1.31c-0.51,0-1.03-0.05-1.55-0.14
			c-0.02-0.36-0.02-0.75,0.01-0.87c0.18,0.03,0.71,0.1,1.37,0.1c0.98,0,1.82-0.15,2.5-0.46l0.3-0.14l-0.33-0.05l-0.39-0.06
			C27.73,14.84,28.48,14.58,29.06,14.16 M29.08,14.02c-0.9,0.68-2.32,0.97-2.32,0.97l0.86,0.14c-0.8,0.36-1.71,0.45-2.46,0.45
			c-0.82,0-1.43-0.11-1.43-0.11c-0.11,0.08-0.05,1.06-0.05,1.06c0.58,0.11,1.13,0.16,1.64,0.16c2.76,0,4.41-1.37,4.41-1.37
			C29.58,14.57,29.08,14.02,29.08,14.02L29.08,14.02z"/>
	</g>
</g>
<path class="st3" d="M7.3,9.99c0,0,4.88-0.78,9.4-4.1"/>
<g>
	<path class="st2" d="M25.66,18.11c-0.39,0-0.79-0.02-1.18-0.07c0.01,0-0.44-0.48-0.62-1.14c0.08,0.07,0.76,0.21,1.65,0.21
		c0.83,0,1.6-0.12,2.29-0.35l-0.89-0.22c0,0,0,0,0,0c0.34,0,1.59-0.28,2.84-1.15c-0.04,0.1,0.11,1.07-0.3,1.81l0,0
		C29.44,17.21,28.03,18.11,25.66,18.11z"/>
	<g>
		<path class="st1" d="M29.66,15.52c0.04,0.32,0.08,1.05-0.24,1.64c-0.18,0.11-1.55,0.91-3.76,0.91c-0.37,0-0.76-0.02-1.14-0.07
			c-0.09-0.1-0.4-0.47-0.57-0.97c0.27,0.05,0.84,0.14,1.56,0.14c0.84,0,1.61-0.12,2.31-0.36l0.39-0.13l-0.41-0.06l-0.42-0.06
			C27.91,16.41,28.77,16.11,29.66,15.52 M29.74,15.34c-1.47,1.03-2.92,1.23-2.92,1.23l0.97,0.14c-0.79,0.27-1.6,0.35-2.27,0.35
			c-0.99,0-1.71-0.17-1.71-0.17c0.19,0.71,0.67,1.2,0.67,1.2c0.42,0.05,0.82,0.07,1.19,0.07c2.42,0,3.83-0.93,3.83-0.93
			C29.94,16.42,29.74,15.34,29.74,15.34L29.74,15.34z"/>
	</g>
</g>
<g>
	<path class="st2" d="M26.83,18.97c-0.54,0-1.12-0.17-1.72-0.5c0.21,0.05,0.61,0.08,1.07,0.08c0.73,0,1.33-0.08,1.78-0.25
		l-1.14-0.23c0.01,0,0.01,0,0.02,0c0.42,0,1.67-0.2,2.66-0.76C29.31,17.5,28.44,18.97,26.83,18.97z"/>
	<g>
		<path class="st1" d="M29.23,17.51c-0.34,0.49-1.14,1.41-2.4,1.41c-0.44,0-0.91-0.11-1.4-0.34c0.21,0.02,0.47,0.03,0.75,0.03
			c0.74,0,1.34-0.08,1.8-0.25l0.38-0.14l-0.41-0.05l-0.56-0.07C27.9,18,28.59,17.82,29.23,17.51 M29.5,17.26
			c-1.22,0.7-2.82,0.84-2.82,0.84l1.26,0.17c-0.53,0.19-1.19,0.24-1.76,0.24c-0.69,0-1.24-0.08-1.24-0.08
			c0.72,0.42,1.35,0.59,1.89,0.59C28.63,19.02,29.5,17.26,29.5,17.26L29.5,17.26z"/>
	</g>
</g>
<text transform="matrix(1 0 0 1 40.6938 20.126)" class="st0 st4 st5">WEBEYECRAFT </text>
<text transform="matrix(1 0 0 1 64.5161 25.7607)" class="st0 st6 st7">Crafting vision digitally!</text>
</svg>
