<?xml version="1.0" encoding="utf-8"?>
<!-- Generator: Adobe Illustrator 26.0.0, SVG Export Plug-In . SVG Version: 6.00 Build 0)  -->
<svg version="1.1" id="Layer_1" xmlns="http://www.w3.org/2000/svg" xmlns:xlink="http://www.w3.org/1999/xlink" x="0px" y="0px"
	 viewBox="0 0 50 50" style="enable-background:new 0 0 50 50;" xml:space="preserve">
<style type="text/css">
	.st0{fill:#FFFFFF;}
	.st1{fill:#0D3749;}
	.st2{fill:#FCA311;stroke:#0D3749;stroke-width:0.1;stroke-miterlimit:10;}
	.st3{fill:none;}
</style>
<path class="st0" d="M40.81,45.74H10.88c-3.51,0-6.38-2.87-6.38-6.38V9.43c0-3.51,2.87-6.38,6.38-6.38h29.93
	c3.51,0,6.38,2.87,6.38,6.38v29.93C47.2,42.87,44.32,45.74,40.81,45.74z"/>
<path class="st1" d="M4.85,22.49c0,0,5.41-5.02,13.15-7.86c0,0-8.7,8.01,0,16.77c0,0-5.29-1.03-12.94-7.47c0,0,4.29,2.87,5.26,2.18
	c0,0-3.56-3.21-0.12-5.63C10.64,20.47,7.18,20.49,4.85,22.49z"/>
<path class="st1" d="M44.84,22.47c0,0-6.11-5.71-12.99-7.77c0,0,8.45,8.22,0,16.67c0,0,6.65-1.57,12.99-7.64
	c0,0-5.67,3.69-8.58,4.81c0,0,6.56-4.94,0-11.32C36.26,17.21,40.94,19.23,44.84,22.47z"/>
<path class="st1" d="M15.06,21.22c0,0,0.65-5.5,6.32-7.74c0,0,4.85-2.2,9.69,1.61c0,0,2.33,1.93,3.13,4.62c0,0-2.25-2.85-5.76-1.3
	c0,0-1.85-1.66-6.54-0.85c0,0-3.77,0.69-3.92,3.68h7.76c0,0-0.89,2.27,0.06,3.72h-7.61c0,0-0.06,2.69,3.9,3.55
	c0,0,3.58,1.1,6.32-0.75c0,0,2.9,1.49,5.43-0.91c0,0-2.34,5.98-9.21,5.96c0,0-5.97,0.12-8.77-5.78c0,0-1.13-1.75-0.8-5.72"/>
<path class="st2" d="M29.13,19.09c0,0,2.71-1.05,4.76,1.32c0,0-1.2,0.92-3.24,1.38c-1.16,0.27-2.59,0.39-4.22,0.11
	c0,0,0.51-1.26,0.72-1.38s1.86,0.29,4.48-0.75C31.63,19.77,29.42,19.26,29.13,19.09z"/>
<path class="st2" d="M30.61,21.79c0,0,2.01-0.41,3.29-1.38c0,0,0.7,0.78,0.92,1.85c0,0-3.27,2.73-8.57,1.72c0,0-0.08-1.39,0.07-1.51
	c0,0,3.13,0.58,5.5-0.48L30.61,21.79z"/>
<path class="st3" d="M20.09,26.4c0,0,1.55-0.25,2.99-1.3"/>
<path class="st2" d="M30.69,24.01c0,0,2.06-0.28,4.14-1.74c0,0,0.29,1.52-0.34,2.67c0,0-2.66,1.76-7.12,1.22c0,0-0.68-0.69-0.95-1.7
	c0,0,2.88,0.69,5.64-0.25L30.69,24.01z"/>
<path class="st2" d="M32.29,26.43c-1.65,0.59-4.26,0.23-4.26,0.23c4.35,2.54,6.46-1.62,6.46-1.62c-1.73,0.96-4,1.16-4,1.16
	L32.29,26.43z"/>
</svg>
