<?xml version="1.0" encoding="utf-8"?>
<!-- Generator: Adobe Illustrator 26.0.0, SVG Export Plug-In . SVG Version: 6.00 Build 0)  -->
<svg version="1.1" id="Layer_1" xmlns="http://www.w3.org/2000/svg" xmlns:xlink="http://www.w3.org/1999/xlink" x="0px" y="0px"
	 viewBox="0 0 100 100" style="enable-background:new 0 0 100 100;" xml:space="preserve">
<style type="text/css">
	.st0{fill:#0D3749;}
	.st1{fill:#FCA311;stroke:#0D3749;stroke-width:0.1;stroke-miterlimit:10;}
	.st2{fill:none;}
</style>
<path class="st0" d="M0.44,46.49c0,0,13.48-12.5,32.76-19.58c0,0-21.69,19.95,0,41.79c0,0-13.18-2.56-32.23-18.6
	c0,0,10.69,7.15,13.1,5.42c0,0-8.87-8.01-0.29-14.03C14.87,41.46,6.23,41.51,0.44,46.49z"/>
<path class="st0" d="M100.07,46.43c0,0-15.22-14.22-32.35-19.37c0,0,21.04,20.48,0,41.53c0,0,16.57-3.92,32.35-19.03
	c0,0-14.13,9.19-21.38,11.98c0,0,16.34-12.31,0-28.21C78.69,33.33,90.33,38.37,100.07,46.43z"/>
<path class="st0" d="M25.88,43.32c0,0,1.61-13.7,15.75-19.29c0,0,12.07-5.48,24.15,4c0,0,5.81,4.8,7.79,11.5
	c0,0-5.61-7.1-14.36-3.25c0,0-4.61-4.15-16.29-2.13c0,0-9.4,1.73-9.77,9.16h19.35c0,0-2.21,5.66,0.14,9.27H33.67
	c0,0-0.14,6.71,9.72,8.84c0,0,8.93,2.74,15.75-1.88c0,0,7.22,3.71,13.54-2.27c0,0-5.82,14.89-22.95,14.86
	c0,0-14.88,0.29-21.84-14.39c0,0-2.82-4.36-2-14.25"/>
<path class="st1" d="M60.93,38.01c0,0,6.75-2.62,11.87,3.29c0,0-3,2.28-8.06,3.45c-2.89,0.66-6.45,0.97-10.52,0.27
	c0,0,1.28-3.13,1.79-3.45c0.52-0.32,4.64,0.71,11.15-1.87C67.16,39.72,61.64,38.45,60.93,38.01z"/>
<path class="st1" d="M64.62,44.73c0,0,5.01-1.03,8.19-3.44c0,0,1.75,1.93,2.3,4.6c0,0-8.15,6.8-21.35,4.29c0,0-0.21-3.47,0.19-3.76
	c0,0,7.81,1.46,13.71-1.19L64.62,44.73z"/>
<path class="st2" d="M38.4,56.22c0,0,3.86-0.62,7.44-3.24"/>
<path class="st1" d="M64.8,50.28c0,0,5.14-0.71,10.31-4.33c0,0,0.73,3.79-0.84,6.65c0,0-6.63,4.39-17.73,3.04
	c0,0-1.7-1.73-2.36-4.24c0,0,7.16,1.71,14.04-0.63L64.8,50.28z"/>
<path class="st1" d="M68.8,56.31c-4.11,1.47-10.61,0.57-10.61,0.57c10.85,6.33,16.1-4.05,16.1-4.05c-4.3,2.4-9.96,2.9-9.96,2.9
	L68.8,56.31z"/>
</svg>
