<?xml version="1.0" encoding="utf-8"?>
<!-- Generator: Adobe Illustrator 26.0.0, SVG Export Plug-In . SVG Version: 6.00 Build 0)  -->
<svg version="1.1" id="Layer_1" xmlns="http://www.w3.org/2000/svg" xmlns:xlink="http://www.w3.org/1999/xlink" x="0px" y="0px"
	 viewBox="0 0 50 50" style="enable-background:new 0 0 50 50;" xml:space="preserve">
<style type="text/css">
	.st0{fill:#0D3749;}
	.st1{fill:#FCA311;stroke:#0D3749;stroke-width:0.1;stroke-miterlimit:10;}
	.st2{fill:none;}
</style>
<path class="st0" d="M0,21.97c0,0,6.76-6.27,16.44-9.83c0,0-10.88,10.01,0,20.97c0,0-6.61-1.28-16.17-9.33c0,0,5.37,3.59,6.58,2.72
	c0,0-4.45-4.02-0.14-7.04C7.24,19.45,2.91,19.47,0,21.97z"/>
<path class="st0" d="M50,21.94c0,0-7.64-7.13-16.23-9.72c0,0,10.56,10.28,0,20.84c0,0,8.31-1.97,16.23-9.55
	c0,0-7.09,4.61-10.73,6.01c0,0,8.2-6.18,0-14.16C39.27,15.37,45.11,17.9,50,21.94z"/>
<path class="st0" d="M12.77,20.38c0,0,0.81-6.88,7.9-9.68c0,0,6.06-2.75,12.12,2.01c0,0,2.91,2.41,3.91,5.77
	c0,0-2.81-3.57-7.21-1.63c0,0-2.31-2.08-8.17-1.07c0,0-4.72,0.87-4.9,4.6h9.71c0,0-1.11,2.84,0.07,4.65h-9.52
	c0,0-0.07,3.37,4.88,4.43c0,0,4.48,1.38,7.9-0.94c0,0,3.62,1.86,6.79-1.14c0,0-2.92,7.47-11.52,7.46c0,0-7.47,0.14-10.96-7.22
	c0,0-1.42-2.19-1-7.15"/>
<path class="st1" d="M30.36,17.72c0,0,3.39-1.31,5.96,1.65c0,0-1.5,1.15-4.05,1.73c-1.45,0.33-3.24,0.48-5.28,0.14
	c0,0,0.64-1.57,0.9-1.73c0.26-0.16,2.33,0.36,5.6-0.94C33.48,18.57,30.71,17.94,30.36,17.72z"/>
<path class="st1" d="M32.21,21.09c0,0,2.52-0.52,4.11-1.73c0,0,0.88,0.97,1.16,2.31c0,0-4.09,3.41-10.72,2.15
	c0,0-0.11-1.74,0.09-1.89c0,0,3.92,0.73,6.88-0.6L32.21,21.09z"/>
<path class="st2" d="M19.05,26.85c0,0,1.94-0.31,3.73-1.63"/>
<path class="st1" d="M32.3,23.87c0,0,2.58-0.35,5.18-2.17c0,0,0.37,1.9-0.42,3.34c0,0-3.33,2.2-8.9,1.53c0,0-0.85-0.87-1.18-2.13
	c0,0,3.59,0.86,7.05-0.32L32.3,23.87z"/>
<path class="st1" d="M34.31,26.9c-2.06,0.74-5.32,0.28-5.32,0.28c5.44,3.17,8.08-2.03,8.08-2.03c-2.16,1.21-5,1.45-5,1.45
	L34.31,26.9z"/>
</svg>
