<?xml version="1.0" encoding="utf-8"?>
<!-- Generator: Adobe Illustrator 26.0.0, SVG Export Plug-In . SVG Version: 6.00 Build 0)  -->
<svg version="1.1" id="Layer_1" xmlns="http://www.w3.org/2000/svg" xmlns:xlink="http://www.w3.org/1999/xlink" x="0px" y="0px"
	 viewBox="0 0 50 50" style="enable-background:new 0 0 50 50;" xml:space="preserve">
<style type="text/css">
	.st0{fill:#0D3749;}
	.st1{fill:#FFFFFF;}
	.st2{fill:#FCA311;}
	.st3{fill:none;}
</style>
<g>
	<path class="st0" d="M7.98,46.66c-2.5,0-4.53-2.03-4.53-4.53V7.87c0-2.5,2.03-4.53,4.53-4.53h34.27c2.5,0,4.53,2.03,4.53,4.53
		v34.27c0,2.5-2.03,4.53-4.53,4.53H7.98z"/>
	<path class="st0" d="M42.24,3.84c2.22,0,4.03,1.81,4.03,4.03v34.27c0,2.22-1.81,4.03-4.03,4.03H7.98c-2.22,0-4.03-1.81-4.03-4.03
		V7.87c0-2.22,1.81-4.03,4.03-4.03H42.24 M42.24,2.84H7.98c-2.77,0-5.03,2.26-5.03,5.03v34.27c0,2.77,2.26,5.03,5.03,5.03h34.27
		c2.77,0,5.03-2.26,5.03-5.03V7.87C47.27,5.1,45.01,2.84,42.24,2.84L42.24,2.84z"/>
</g>
<path class="st1" d="M4.58,23.54c0,0,5.55-5.15,13.49-8.06c0,0-8.93,8.22,0,17.21c0,0-5.43-1.05-13.27-7.66c0,0,4.4,2.95,5.39,2.23
	c0,0-3.65-3.3-0.12-5.78C10.52,21.46,6.97,21.49,4.58,23.54z"/>
<path class="st1" d="M45.6,23.51c0,0-6.27-5.85-13.32-7.97c0,0,8.66,8.43,0,17.1c0,0,6.82-1.61,13.32-7.84c0,0-5.82,3.78-8.8,4.93
	c0,0,6.73-5.07,0-11.61C36.8,18.12,41.59,20.19,45.6,23.51z"/>
<path class="st1" d="M15.05,22.23c0,0,0.66-5.64,6.49-7.94c0,0,4.97-2.26,9.94,1.65c0,0,2.39,1.98,3.21,4.74
	c0,0-2.31-2.93-5.91-1.34c0,0-1.9-1.71-6.71-0.88c0,0-3.87,0.71-4.02,3.77h7.97c0,0-0.91,2.33,0.06,3.82h-7.81c0,0-0.06,2.76,4,3.64
	c0,0,3.68,1.13,6.49-0.77c0,0,2.97,1.53,5.57-0.94c0,0-2.4,6.13-9.45,6.12c0,0-6.13,0.12-8.99-5.92c0,0-1.16-1.8-0.82-5.87"/>
<g>
	<path class="st2" d="M28.62,23.05c-0.62,0-1.26-0.05-1.89-0.16c0.25-0.44,0.61-1.24,0.76-1.33c0.03-0.02,0.17-0.02,0.21-0.02
		l0.59,0.01c1.27,0,2.51-0.25,3.78-0.75c-0.76-0.26-2.2-0.62-2.52-0.77c0,0,0,0,0.01,0c0.15,0,0.7-0.17,1.41-0.17
		c0.91,0,2.24,0.27,3.36,1.57c0,0,0,0,0,0c-0.08,0-1.3,0.89-3.29,1.34C30.25,22.96,29.44,23.05,28.62,23.05z"/>
	<g>
		<path class="st1" d="M30.97,19.81v0.1c0.88,0,2.16,0.26,3.26,1.48c-0.32,0.22-1.46,0.94-3.19,1.34c-0.79,0.18-1.6,0.27-2.41,0.27
			c-0.58,0-1.17-0.05-1.76-0.14c0.24-0.57,0.54-1.19,0.65-1.25c0.01-0.01,0.05-0.01,0.19-0.01c0.06,0,0.13,0,0.21,0
			c0.11,0,0.23,0,0.38,0c1.28,0,2.52-0.25,3.8-0.75l0.3-0.12l-0.31-0.07c-0.73-0.17-1.79-0.43-2.29-0.59
			c0.25-0.07,0.67-0.15,1.18-0.15V19.81 M30.97,19.81c-0.87,0-1.48,0.24-1.48,0.24c0.29,0.18,2.57,0.7,2.57,0.7
			c-1.68,0.67-2.98,0.75-3.76,0.75c-0.25,0-0.45-0.01-0.59-0.01c-0.12,0-0.2,0.01-0.24,0.03c-0.21,0.13-0.74,1.42-0.74,1.42
			c0.67,0.11,1.3,0.16,1.9,0.16c0.9,0,1.72-0.11,2.43-0.28c2.09-0.48,3.32-1.42,3.32-1.42C33.25,20.11,31.95,19.81,30.97,19.81
			L30.97,19.81z"/>
	</g>
</g>
<g>
	<path class="st2" d="M28.92,25.24c-0.78,0-1.58-0.08-2.38-0.23c0-0.62,0.01-1.39,0.1-1.46c0,0.01,0.88,0.17,2.04,0.17c0,0,0,0,0,0
		c1.41,0,2.62-0.22,3.59-0.66l-1.21-0.29c0.33,0,2.15-0.44,3.34-1.34c-0.01,0.05,0.66,0.82,0.87,1.86c0,0,0,0,0,0
		C35.23,23.3,32.84,25.24,28.92,25.24z"/>
	<g>
		<path class="st1" d="M34.36,21.53c0.17,0.21,0.66,0.87,0.85,1.72c-0.35,0.27-2.67,1.93-6.29,1.93c-0.75,0-1.52-0.07-2.29-0.21
			c-0.03-0.56-0.03-1.19,0.03-1.35c0.23,0.04,1.02,0.16,2.03,0.16c1.42,0,2.63-0.22,3.61-0.66l0.3-0.14l-0.33-0.05l-0.77-0.13
			C32.18,22.61,33.43,22.21,34.36,21.53 M34.38,21.4c-1.31,0.99-3.37,1.42-3.37,1.42l1.25,0.21c-1.16,0.52-2.49,0.65-3.57,0.65
			c-1.19,0-2.07-0.16-2.07-0.16c-0.16,0.12-0.08,1.55-0.08,1.55c0.85,0.16,1.65,0.23,2.39,0.23c4.01,0,6.4-1.99,6.4-1.99
			C35.1,22.19,34.38,21.4,34.38,21.4L34.38,21.4z"/>
	</g>
</g>
<path class="st3" d="M2.73,15.54c0,0,7.1-1.14,13.66-5.96"/>
<g>
	<path class="st2" d="M29.41,27.36c-0.57,0-1.14-0.04-1.72-0.11c0.01,0-0.66-0.7-0.93-1.69c0.08,0.08,1.09,0.3,2.43,0.3l0,0
		c1.21,0,2.32-0.17,3.32-0.51l-1.35-0.28c0,0,0,0,0,0c0.4,0,2.3-0.39,4.18-1.7c-0.05,0.1,0.2,1.56-0.41,2.67l0,0
		C34.93,26.03,32.87,27.36,29.41,27.36z"/>
	<g>
		<path class="st1" d="M35.25,23.49c0.05,0.41,0.15,1.58-0.34,2.5c-0.22,0.14-2.23,1.33-5.5,1.33c-0.55,0-1.12-0.03-1.68-0.1
			c-0.11-0.12-0.62-0.71-0.88-1.52c0.35,0.07,1.23,0.22,2.34,0.22c1.21,0,2.34-0.17,3.34-0.51l0.39-0.13l-0.41-0.06l-0.85-0.12
			C32.42,24.9,33.83,24.45,35.25,23.49 M35.33,23.32c-2.13,1.49-4.25,1.78-4.25,1.78l1.41,0.2c-1.15,0.39-2.32,0.51-3.3,0.51
			c-1.44,0-2.48-0.25-2.48-0.25c0.27,1.03,0.97,1.74,0.97,1.74c0.61,0.07,1.19,0.11,1.73,0.11c3.52,0,5.57-1.36,5.57-1.36
			C35.63,24.87,35.33,23.32,35.33,23.32L35.33,23.32z"/>
	</g>
</g>
<g>
	<path class="st2" d="M31.11,28.61c-0.82,0-1.7-0.26-2.6-0.78c0.26,0.07,0.91,0.14,1.66,0.14c1.06,0,1.93-0.12,2.58-0.36l-1.73-0.32
		c0.01,0,0.01,0,0.02,0c0.52,0,2.45-0.28,3.96-1.14C34.81,26.34,33.53,28.61,31.11,28.61z"/>
	<g>
		<path class="st1" d="M34.73,26.35c-0.43,0.67-1.63,2.2-3.62,2.2c-0.72,0-1.48-0.2-2.26-0.6c0.33,0.03,0.8,0.06,1.32,0.06
			c1.06,0,1.94-0.12,2.6-0.36l0.38-0.14l-0.41-0.05l-1.11-0.15C32.4,27.18,33.63,26.9,34.73,26.35 M34.99,26.1
			c-1.77,1.01-4.1,1.22-4.1,1.22l1.84,0.24c-0.77,0.28-1.73,0.36-2.56,0.36c-1,0-1.8-0.11-1.8-0.11c1.04,0.62,1.96,0.85,2.75,0.85
			C33.72,28.66,34.99,26.1,34.99,26.1L34.99,26.1z"/>
	</g>
</g>
</svg>
